<svg width="382" height="382" xmlns="http://www.w3.org/2000/svg" xmlns:xlink="http://www.w3.org/1999/xlink" xml:space="preserve" overflow="hidden"><g transform="translate(-449 -169)"><path d="M831 360C831 465.486 745.486 551 640 551 534.514 551 449 465.486 449 360 449 254.514 534.514 169 640 169 745.486 169 831 254.514 831 360Z" fill="#FFFFFF"/><path d="M717.985 240.27C711.099 238.826 704.212 240.936 699.991 245.713L699.658 246.046 699.325 245.713C695.824 241.884 690.85 239.741 685.663 239.825 684.207 239.808 682.753 239.957 681.331 240.269 671.89 242.269 665.892 250.269 665.892 260.595 665.892 268.481 670.113 284.364 698.325 301.803L699.658 302.58 700.991 301.803C729.203 284.365 733.424 268.481 733.424 260.595 733.535 248.045 725.092 241.825 717.985 240.27ZM699.885 296.47 699.663 296.581 699.441 296.47C674.672 280.809 671.007 267.258 671.007 260.594 671.007 248.594 679.782 245.821 682.447 245.266 683.506 245.04 684.586 244.928 685.668 244.933 691.111 244.933 695.442 247.488 697.331 251.933L699.664 257.264 701.997 251.933C704.774 245.713 711.66 244.158 716.881 245.269 722.435 246.491 728.321 251.045 728.321 260.597 728.314 267.26 724.649 280.811 699.88 296.472Z" fill="#6E2180"/><path d="M611.578 349.786C608.243 349.632 604.932 349.149 601.693 348.342L601.36 348.231 601.471 347.787C602.915 341.012 604.471 328.572 599.361 322.018 597.346 319.489 594.262 318.051 591.03 318.131 582.811 318.131 580.7 325.573 579.145 330.904 574.145 347.898 567.145 351.785 560.152 353.452L551.266 353.452 551.266 392.882 560.152 392.882C567.483 393.548 572.925 395.437 579.812 398.436 585.676 401.096 592.033 402.496 598.472 402.546 608.58 402.546 615.022 397.77 617.465 388.44 619.02 382.553 622.465 364.448 622.465 360.45 622.574 354.34 618.242 350.009 611.578 349.786ZM612.578 387.217C610.69 394.437 606.469 397.547 598.472 397.547 592.727 397.474 587.057 396.227 581.811 393.882 574.369 390.661 568.482 388.662 560.374 387.882L556.374 387.882 556.374 358.782 560.374 358.782 561.04 358.671C568.704 356.894 578.256 352.229 584.032 332.458 585.809 326.238 587.032 323.35 590.918 323.35 592.546 323.267 594.116 323.969 595.139 325.238 598.582 329.57 597.916 340.455 595.694 349.229L595.139 351.339 597.139 352.228C601.249 353.894 607.139 354.672 611.245 354.894 615.133 355.116 617.354 357.115 617.354 360.559 617.466 363.559 614.244 380.998 612.578 387.218Z" fill="#6E2180"/><path d="M747.752 250.15C737.263 223.525 707.176 210.445 680.551 220.934 654.142 231.339 641.019 261.054 651.12 287.581 653.037 292.568 655.737 297.218 659.12 301.354 659.233 301.565 659.383 301.753 659.564 301.909L659.897 302.242 660.008 302.353 660.008 303.686 659.231 327.455 683.331 318.902 683.997 318.68 684.663 318.458 684.774 318.458C684.996 318.458 685.107 318.569 685.329 318.68 685.584 318.769 685.843 318.843 686.106 318.902 696.708 321.804 707.962 321.22 718.206 317.236 744.815 306.791 758.009 276.832 747.752 250.15ZM716.319 312.35C707.589 315.798 698.004 316.458 688.884 314.238L687.551 313.905 686.218 313.572 686.218 313.572 685.218 312.906 684.885 313.017 684.776 313.017 683.999 313.35 676.89 315.794 676.335 316.016 664.784 320.016 665.117 308.576 665.117 307.468 665.228 304.913 665.45 300.137 664.673 299.582C664.34 299.249 664.118 298.916 663.784 298.582 663.491 298.277 663.231 297.941 663.007 297.582 660.157 293.988 657.873 289.98 656.232 285.697 646.897 261.697 658.786 234.674 682.786 225.339 706.786 216.005 733.809 227.893 743.144 251.893 752.478 275.893 740.59 302.916 716.59 312.251 716.501 312.285 716.411 312.32 716.322 312.354Z" fill="#6E2180"/><path d="M624.017 412.097 624.794 412.208 624.794 412.208Z" fill="#6E2180"/><path d="M624.017 412.097 624.794 412.208 624.794 412.208Z" fill="#6E2180"/><path d="M644.121 390.771 643.899 390.105 643.788 389.55C643.787 389.49 643.835 389.44 643.895 389.439 643.896 389.439 643.898 389.439 643.899 389.439 644.01 389.328 644.01 389.106 644.121 388.995 644.232 388.773 644.343 388.662 644.343 388.44 659.771 356.142 646.095 317.454 613.797 302.026 581.5 286.599 542.811 300.274 527.383 332.572 511.956 364.87 525.632 403.558 557.929 418.986 566.635 423.145 576.16 425.307 585.809 425.315 596.808 425.344 607.63 422.551 617.242 417.205 617.441 417.119 617.628 417.007 617.797 416.872 617.919 416.755 618.074 416.678 618.241 416.65 618.301 416.651 618.351 416.603 618.352 416.543 618.352 416.542 618.352 416.54 618.352 416.539L618.463 416.539 619.018 416.65 619.684 416.761 652.117 421.87ZM625.354 412.319 624.799 412.208 624.022 412.097 623.8 412.097 617.354 411.205 616.91 411.094 616.244 411.871 616.244 411.871C615.911 412.093 615.467 412.315 615.133 412.537 614.786 412.766 614.413 412.952 614.022 413.092 584.938 428.543 548.835 417.492 533.383 388.407 517.932 359.323 528.984 323.22 558.068 307.768 587.152 292.317 623.256 303.369 638.707 332.453 643.286 341.072 645.679 350.684 645.677 360.444 645.717 368.145 644.206 375.775 641.234 382.88 641.123 383.213 640.901 383.657 640.79 383.991 640.568 384.324 640.457 384.768 640.235 385.102L640.235 385.213 639.346 386.102 638.346 387.213C638.346 387.324 638.457 387.546 638.457 387.657L638.457 387.879C638.452 388.034 638.491 388.188 638.568 388.323L638.568 388.545 638.568 388.545C638.679 389.1 638.901 389.767 639.012 390.433 639.123 391.099 639.345 391.877 639.456 392.543 639.646 393.237 639.794 393.941 639.9 394.653 640.011 395.097 640.122 395.43 640.233 395.764 640.233 395.986 640.344 396.097 640.344 396.319 640.344 396.43 640.455 396.541 640.455 396.652L640.455 396.874 640.455 396.874 645.231 415.423 625.905 412.313Z" fill="#6E2180"/><path d="M624.017 412.097 624.794 412.208 624.794 412.208ZM624.017 412.097 624.794 412.208 624.794 412.208ZM624.017 412.097 624.794 412.208 624.794 412.208ZM624.017 412.097 624.794 412.208 624.794 412.208ZM624.017 412.097 624.794 412.208 624.794 412.208Z" fill="#6E2180"/><text fill="#6E2180" font-family="Roboto,Roboto_MSFontService,sans-serif" font-weight="400" font-size="30" transform="translate(521.094 477)">COMMUNICATION</text><text fill="#6E2180" font-family="Roboto,Roboto_MSFontService,sans-serif" font-weight="400" font-size="30" transform="translate(579.871 512)">DIGITALE</text></g></svg>