<svg width="330" height="330" xmlns="http://www.w3.org/2000/svg" xmlns:xlink="http://www.w3.org/1999/xlink" xml:space="preserve" overflow="hidden"><g transform="translate(-2035 -1073)"><g><g><g><path d="M40.7406 182 3.00523 182 3.00523 60.4893 40.7406 60.4893ZM21.8506 43.9313C9.72419 43.99-0.153774 34.2071-0.212442 22.0807-0.27111 9.95432 9.51173 0.0763569 21.6381 0.0176887 33.7646-0.0409794 43.6425 9.74186 43.7012 21.8683 43.7012 21.8693 43.7012 21.8702 43.7012 21.8712 43.7054 33.972 33.951 43.8123 21.8506 43.9141ZM181.959 182 144.309 182 144.309 122.85C144.309 108.769 144.024 90.6755 124.691 90.6755 105.073 90.6755 102.068 105.99 102.068 121.834L102.068 182 64.3738 182 64.3738 60.4893 100.564 60.4893 100.564 77.0644 101.093 77.0644C108.466 64.4425 122.187 56.9018 136.795 57.4428 174.983 57.4428 182.004 82.5906 182.004 115.253L182.004 182Z" fill="#0666C2" transform="matrix(1 0 0 1.00549 2109 1146)"/></g></g></g></g></svg>